<svg xmlns="http://www.w3.org/2000/svg" width="478.24" height="442.3s" viewBox="0 0 478.24 442.3"><defs><style>.cls-1,.cls-6{fill:#92e3a9;}.cls-10,.cls-12,.cls-2,.cls-7{fill:#fff;}.cls-2{opacity:0.7;}.cls-14,.cls-3,.cls-4{fill:none;}.cls-12,.cls-13,.cls-14,.cls-15,.cls-3,.cls-4,.cls-6,.cls-7,.cls-8{stroke:#263238;}.cls-15,.cls-3,.cls-6,.cls-7,.cls-8{stroke-miterlimit:10;}.cls-12,.cls-13,.cls-14,.cls-4{stroke-linecap:round;stroke-linejoin:round;}.cls-4{stroke-dasharray:5;}.cls-13,.cls-5,.cls-8{fill:#263238;}.cls-15,.cls-9{fill:#b2b2b2;}.cls-11{fill:#e8e8e8;}</style></defs><title>6325245</title><g id="Background_Simple" data-name="Background Simple"><path class="cls-1" d="M475.79,277.05c-13.49,40.89-42.56,85.72-85.35,100.31C325.8,399.42,320,452.43,202.71,452.07a236.91,236.91,0,0,1-50.94-5.47,197.3,197.3,0,0,1-24.12-7c-69.5-25.07-107.55-84.69-113-148.4-7.15-83.8,49.87-126.07,87-151s79.53-117.45,194.87-118a228.73,228.73,0,0,1,52.35,5.59c39.16,9,79.46,30.67,103.67,63.7,1.81,2.48,3.55,5,5.23,7.62C490.46,149.94,494.19,221.29,475.79,277.05Z" transform="translate(-14.06 -22.22)"/><path class="cls-2" d="M475.79,277.05c-13.49,40.89-42.56,85.72-85.35,100.31C325.8,399.42,320,452.43,202.71,452.07a236.91,236.91,0,0,1-50.94-5.47,197.3,197.3,0,0,1-24.12-7c-69.5-25.07-107.55-84.69-113-148.4-7.15-83.8,49.87-126.07,87-151s79.53-117.45,194.87-118a228.73,228.73,0,0,1,52.35,5.59c39.16,9,79.46,30.67,103.67,63.7,1.81,2.48,3.55,5,5.23,7.62C490.46,149.94,494.19,221.29,475.79,277.05Z" transform="translate(-14.06 -22.22)"/></g><g id="Floor"><line class="cls-3" x1="467.23" y1="438.48" x2="1.85" y2="438.48"/></g><g id="Dotted_Line" data-name="Dotted Line"><path class="cls-4" d="M35.87,423.22s14.7-257,455.93-280.34" transform="translate(-14.06 -22.22)"/><path class="cls-4" d="M439.8,125.55c16.79,13.7,25.61,35.06,30,55.78,9.18,43,4.88,89.27-16.44,128.13-22.5,41-62.25,70.58-104.95,88.14-90.52,37.23-205.75,12.82-257.15-75.51-.56-1-1.11-1.92-1.65-2.89-5-8.91-9.59-18.53-11.56-28.61" transform="translate(-14.06 -22.22)"/></g><g id="Screen"><rect class="cls-5" x="15.59" y="22.59" width="272.23" height="269.96" rx="7.49"/><rect class="cls-6" x="22.15" y="16.3" width="272.23" height="269.96" rx="7.49"/><rect class="cls-7" x="78.16" y="176.49" width="160.39" height="29.23" rx="12.3"/><rect class="cls-7" x="78.16" y="117.74" width="160.39" height="29.23" rx="12.3"/><rect class="cls-5" x="103.86" y="223.7" width="108.98" height="29.23" rx="12.3"/><path class="cls-8" d="M308.43,60.06v-13a8.54,8.54,0,0,0-8.54-8.55H44.75a8.54,8.54,0,0,0-8.54,8.55v13Z" transform="translate(-14.06 -22.22)"/><circle class="cls-7" cx="254.94" cy="28.42" r="3.95"/><circle class="cls-7" cx="268.27" cy="28.42" r="3.95"/><path class="cls-7" d="M299.6,50.64a4,4,0,1,0-4,4A4,4,0,0,0,299.6,50.64Z" transform="translate(-14.06 -22.22)"/></g><g id="Icon"><path class="cls-8" d="M396,65.92a33.06,33.06,0,1,1-33.05-33.06A32.9,32.9,0,0,1,396,65.92Z" transform="translate(-14.06 -22.22)"/><path class="cls-7" d="M376.73,60.74a13.8,13.8,0,1,0-13.8,13.81A13.8,13.8,0,0,0,376.73,60.74Z" transform="translate(-14.06 -22.22)"/><path class="cls-7" d="M383.34,91.9a33,33,0,0,1-40.83,0,20.9,20.9,0,0,1,40.83,0Z" transform="translate(-14.06 -22.22)"/></g><g id="Paper_Plane" data-name="Paper Plane"><polygon class="cls-7" points="391 69.05 430.73 77.28 420.05 89.51 391 69.05"/><polygon class="cls-7" points="391 69.05 404.33 106.43 416.08 93.34 391 69.05"/><polygon class="cls-7" points="420.05 89.51 419.14 98.92 416.08 93.34 391 69.05 420.05 89.51"/><polygon class="cls-7" points="419.14 98.92 413.98 95.98 416.08 93.34 419.14 98.92"/></g><g id="Padlock"><path class="cls-5" d="M342.64,343.48V247.33a42.29,42.29,0,1,1,84.57,0v96.15h17.45V247.33a59.81,59.81,0,0,0-59.74-59.74h0a59.81,59.81,0,0,0-59.74,59.74v96.15Z" transform="translate(-14.06 -22.22)"/><rect class="cls-9" x="302.43" y="279.42" width="142.39" height="159.05"/><polygon class="cls-10" points="444.82 292.95 302.43 435.35 302.43 438.48 316.67 438.48 444.82 310.32 444.82 292.95"/><polygon class="cls-10" points="302.43 319.03 302.43 371.01 394.02 279.42 342.04 279.42 302.43 319.03"/><rect class="cls-3" x="302.43" y="279.42" width="142.39" height="159.05"/><rect class="cls-8" x="414.85" y="279.42" width="29.97" height="159.05"/><path class="cls-8" d="M376.57,364.58a10,10,0,1,0-13.88,9.19l-1.83,21.67h11.47l-1.84-21.67A10,10,0,0,0,376.57,364.58Z" transform="translate(-14.06 -22.22)"/></g><g id="Text"><path class="cls-5" d="M107.83,216.3l-1.31-.79,1.65-2.32-2.47-.94.55-1.42,2.35,1.25-.25-2.87H110l-.27,2.87,2.38-1.25.52,1.42-2.46,1,1.67,2.3-1.36.79-1.33-2.61Z" transform="translate(-14.06 -22.22)"/><path class="cls-5" d="M116.13,216.3l-1.31-.79,1.65-2.32-2.46-.94.54-1.42,2.35,1.25-.25-2.87h1.69l-.27,2.87,2.38-1.25.52,1.42-2.46,1,1.67,2.3-1.36.79-1.33-2.61Z" transform="translate(-14.06 -22.22)"/><path class="cls-5" d="M124.44,216.3l-1.32-.79,1.65-2.32-2.46-.94.54-1.42,2.36,1.25-.25-2.87h1.69l-.28,2.87,2.38-1.25.52,1.42-2.46,1,1.67,2.3-1.35.79-1.34-2.61Z" transform="translate(-14.06 -22.22)"/><path class="cls-5" d="M132.74,216.3l-1.32-.79,1.65-2.32-2.46-.94.54-1.42,2.36,1.25-.25-2.87H135l-.27,2.87,2.37-1.25.53,1.42-2.47,1,1.67,2.3-1.35.79-1.34-2.61Z" transform="translate(-14.06 -22.22)"/><path class="cls-5" d="M141,216.3l-1.32-.79,1.65-2.32-2.46-.94.54-1.42,2.36,1.25-.25-2.87h1.69l-.27,2.87,2.38-1.25.52,1.42-2.46,1,1.66,2.3-1.35.79-1.34-2.61Z" transform="translate(-14.06 -22.22)"/><path class="cls-5" d="M149.34,216.3l-1.31-.79,1.64-2.32-2.46-.94.54-1.42,2.36,1.25-.25-2.87h1.69l-.27,2.87,2.38-1.25.52,1.42-2.46,1,1.67,2.3-1.36.79-1.33-2.61Z" transform="translate(-14.06 -22.22)"/><path class="cls-5" d="M157.64,216.3l-1.31-.79,1.64-2.32-2.46-.94.55-1.42,2.35,1.25-.25-2.87h1.69l-.27,2.87,2.38-1.25.52,1.42-2.46,1,1.67,2.3-1.36.79L159,213.69Z" transform="translate(-14.06 -22.22)"/><path class="cls-5" d="M165.94,216.3l-1.31-.79,1.65-2.32-2.46-.94.54-1.42,2.35,1.25-.25-2.87h1.69l-.27,2.87,2.38-1.25.52,1.42-2.46,1,1.67,2.3-1.36.79-1.33-2.61Z" transform="translate(-14.06 -22.22)"/><path class="cls-5" d="M174.24,216.3l-1.31-.79,1.65-2.32-2.46-.94.54-1.42,2.36,1.25-.25-2.87h1.69l-.28,2.87,2.38-1.25.52,1.42-2.46,1,1.67,2.3-1.35.79-1.34-2.61Z" transform="translate(-14.06 -22.22)"/><path class="cls-5" d="M182.55,216.3l-1.32-.79,1.65-2.32-2.46-.94.54-1.42,2.36,1.25-.25-2.87h1.69l-.27,2.87,2.37-1.25.52,1.42-2.46,1,1.67,2.3-1.35.79-1.34-2.61Z" transform="translate(-14.06 -22.22)"/><path class="cls-5" d="M190.85,216.3l-1.32-.79,1.65-2.32-2.46-.94.54-1.42,2.36,1.25-.25-2.87h1.69l-.27,2.87,2.38-1.25.52,1.42-2.46,1,1.66,2.3-1.35.79-1.34-2.61Z" transform="translate(-14.06 -22.22)"/><path class="cls-5" d="M199.15,216.3l-1.31-.79,1.64-2.32-2.46-.94.54-1.42,2.36,1.25-.25-2.87h1.69l-.27,2.87,2.38-1.25.52,1.42-2.46,1,1.67,2.3-1.36.79-1.34-2.61Z" transform="translate(-14.06 -22.22)"/><path class="cls-5" d="M207.45,216.3l-1.31-.79,1.64-2.32-2.46-.94.55-1.42,2.35,1.25-.25-2.87h1.69l-.27,2.87,2.38-1.25.52,1.42-2.46,1,1.67,2.3-1.36.79-1.33-2.61Z" transform="translate(-14.06 -22.22)"/><path class="cls-5" d="M215.75,216.3l-1.31-.79,1.65-2.32-2.47-.94.55-1.42,2.35,1.25-.25-2.87H218l-.27,2.87,2.38-1.25.52,1.42-2.46,1,1.67,2.3-1.36.79-1.33-2.61Z" transform="translate(-14.06 -22.22)"/><path class="cls-5" d="M224.05,216.3l-1.31-.79,1.65-2.32-2.46-.94.54-1.42,2.36,1.25-.26-2.87h1.69l-.27,2.87,2.38-1.25.52,1.42-2.46,1,1.67,2.3-1.36.79-1.33-2.61Z" transform="translate(-14.06 -22.22)"/><path class="cls-5" d="M232.36,216.3l-1.32-.79,1.65-2.32-2.46-.94.54-1.42,2.36,1.25-.25-2.87h1.69l-.28,2.87,2.38-1.25.52,1.42-2.46,1,1.67,2.3-1.35.79-1.34-2.61Z" transform="translate(-14.06 -22.22)"/><path class="cls-5" d="M107.83,157.55l-1.31-.79,1.65-2.32-2.47-.94.55-1.42,2.35,1.26-.25-2.88H110l-.27,2.88,2.38-1.26.52,1.42-2.46,1,1.67,2.3-1.36.79-1.33-2.61Z" transform="translate(-14.06 -22.22)"/><path class="cls-5" d="M116.13,157.55l-1.31-.79,1.65-2.32L114,153.5l.54-1.42,2.35,1.26-.25-2.88h1.69l-.27,2.88,2.38-1.26.52,1.42-2.46,1,1.67,2.3-1.36.79-1.33-2.61Z" transform="translate(-14.06 -22.22)"/><path class="cls-5" d="M124.44,157.55l-1.32-.79,1.65-2.32-2.46-.94.54-1.42,2.36,1.26-.25-2.88h1.69l-.28,2.88,2.38-1.26.52,1.42-2.46,1,1.67,2.3-1.35.79-1.34-2.61Z" transform="translate(-14.06 -22.22)"/><path class="cls-5" d="M132.74,157.55l-1.32-.79,1.65-2.32-2.46-.94.54-1.42,2.36,1.26-.25-2.88H135l-.27,2.88,2.37-1.26.53,1.42-2.47,1,1.67,2.3-1.35.79-1.34-2.61Z" transform="translate(-14.06 -22.22)"/><path class="cls-5" d="M141,157.55l-1.32-.79,1.65-2.32-2.46-.94.54-1.42,2.36,1.26-.25-2.88h1.69l-.27,2.88,2.38-1.26.52,1.42-2.46,1,1.66,2.3-1.35.79-1.34-2.61Z" transform="translate(-14.06 -22.22)"/><path class="cls-5" d="M149.34,157.55l-1.31-.79,1.64-2.32-2.46-.94.54-1.42,2.36,1.26-.25-2.88h1.69l-.27,2.88,2.38-1.26.52,1.42-2.46,1,1.67,2.3-1.36.79-1.33-2.61Z" transform="translate(-14.06 -22.22)"/><path class="cls-5" d="M157.64,157.55l-1.31-.79,1.64-2.32-2.46-.94.55-1.42,2.35,1.26-.25-2.88h1.69l-.27,2.88,2.38-1.26.52,1.42-2.46,1,1.67,2.3-1.36.79L159,154.94Z" transform="translate(-14.06 -22.22)"/><path class="cls-5" d="M165.94,157.55l-1.31-.79,1.65-2.32-2.46-.94.54-1.42,2.35,1.26-.25-2.88h1.69l-.27,2.88,2.38-1.26.52,1.42-2.46,1,1.67,2.3-1.36.79-1.33-2.61Z" transform="translate(-14.06 -22.22)"/><path class="cls-5" d="M174.24,157.55l-1.31-.79,1.65-2.32-2.46-.94.54-1.42,2.36,1.26-.25-2.88h1.69l-.28,2.88,2.38-1.26.52,1.42-2.46,1,1.67,2.3-1.35.79-1.34-2.61Z" transform="translate(-14.06 -22.22)"/><path class="cls-5" d="M182.55,157.55l-1.32-.79,1.65-2.32-2.46-.94.54-1.42,2.36,1.26-.25-2.88h1.69l-.27,2.88,2.37-1.26.52,1.42-2.46,1,1.67,2.3-1.35.79-1.34-2.61Z" transform="translate(-14.06 -22.22)"/><path class="cls-5" d="M190.85,157.55l-1.32-.79,1.65-2.32-2.46-.94.54-1.42,2.36,1.26-.25-2.88h1.69l-.27,2.88,2.38-1.26.52,1.42-2.46,1,1.66,2.3-1.35.79-1.34-2.61Z" transform="translate(-14.06 -22.22)"/><path class="cls-5" d="M199.15,157.55l-1.31-.79,1.64-2.32L197,153.5l.54-1.42,2.36,1.26-.25-2.88h1.69l-.27,2.88,2.38-1.26.52,1.42-2.46,1,1.67,2.3-1.36.79-1.34-2.61Z" transform="translate(-14.06 -22.22)"/><path class="cls-5" d="M207.45,157.55l-1.31-.79,1.64-2.32-2.46-.94.55-1.42,2.35,1.26-.25-2.88h1.69l-.27,2.88,2.38-1.26.52,1.42-2.46,1,1.67,2.3-1.36.79-1.33-2.61Z" transform="translate(-14.06 -22.22)"/><path class="cls-5" d="M215.75,157.55l-1.31-.79,1.65-2.32-2.47-.94.55-1.42,2.35,1.26-.25-2.88H218l-.27,2.88,2.38-1.26.52,1.42-2.46,1,1.67,2.3-1.36.79-1.33-2.61Z" transform="translate(-14.06 -22.22)"/><path class="cls-5" d="M224.05,157.55l-1.31-.79,1.65-2.32-2.46-.94.54-1.42,2.36,1.26-.26-2.88h1.69l-.27,2.88,2.38-1.26.52,1.42-2.46,1,1.67,2.3-1.36.79-1.33-2.61Z" transform="translate(-14.06 -22.22)"/><path class="cls-5" d="M232.36,157.55l-1.32-.79,1.65-2.32-2.46-.94.54-1.42,2.36,1.26-.25-2.88h1.69l-.28,2.88,2.38-1.26.52,1.42-2.46,1,1.67,2.3-1.35.79-1.34-2.61Z" transform="translate(-14.06 -22.22)"/><path class="cls-5" d="M149.36,132v-8.67h2.15a2.38,2.38,0,0,1,1.25.29,1.68,1.68,0,0,1,.68.82,3.48,3.48,0,0,1,.21,1.29,2.75,2.75,0,0,1-.24,1.19,1.76,1.76,0,0,1-.71.77,2.27,2.27,0,0,1-1.18.28h-1v4Zm1.21-4.9h.55A2.31,2.31,0,0,0,152,127a.75.75,0,0,0,.43-.41,2.25,2.25,0,0,0,.13-.83,3.76,3.76,0,0,0-.1-1,.64.64,0,0,0-.38-.46,2.22,2.22,0,0,0-.89-.13h-.57Z" transform="translate(-14.06 -22.22)"/><path class="cls-5" d="M153.62,132l1.84-8.67h1.16l1.85,8.67h-1.14l-.4-2.18h-1.76l-.42,2.18Zm1.71-3.05h1.44l-.72-3.9Z" transform="translate(-14.06 -22.22)"/><path class="cls-5" d="M161.39,132.13a2.28,2.28,0,0,1-1.24-.32,2.2,2.2,0,0,1-.76-.89,3.77,3.77,0,0,1-.3-1.32l1.07-.29a5,5,0,0,0,.15.89,1.52,1.52,0,0,0,.37.7.93.93,0,0,0,.71.27.91.91,0,0,0,.72-.26,1.06,1.06,0,0,0,.24-.75,1.55,1.55,0,0,0-.27-.95,4.9,4.9,0,0,0-.67-.72L160,127.2a2.38,2.38,0,0,1-.63-.81,2.58,2.58,0,0,1-.2-1.1,2,2,0,0,1,.54-1.48,2.07,2.07,0,0,1,1.49-.52,2.75,2.75,0,0,1,.9.13,1.72,1.72,0,0,1,.66.41,2,2,0,0,1,.41.71,3.46,3.46,0,0,1,.21,1l-1,.28a4.55,4.55,0,0,0-.12-.78,1.24,1.24,0,0,0-.34-.58,1.17,1.17,0,0,0-1.39,0,.93.93,0,0,0-.25.71,1.37,1.37,0,0,0,.13.65,1.82,1.82,0,0,0,.43.53l1.47,1.28a4.79,4.79,0,0,1,.87,1,2.6,2.6,0,0,1,.37,1.41,2.17,2.17,0,0,1-.27,1.11,1.78,1.78,0,0,1-.73.71A2.33,2.33,0,0,1,161.39,132.13Z" transform="translate(-14.06 -22.22)"/><path class="cls-5" d="M166.46,132.13a2.3,2.3,0,0,1-1.25-.32,2.2,2.2,0,0,1-.76-.89,3.77,3.77,0,0,1-.3-1.32l1.07-.29a5,5,0,0,0,.15.89,1.52,1.52,0,0,0,.37.7.94.94,0,0,0,.72.27.9.9,0,0,0,.71-.26,1.06,1.06,0,0,0,.24-.75,1.55,1.55,0,0,0-.27-.95,4.9,4.9,0,0,0-.67-.72L165,127.2a2.51,2.51,0,0,1-.63-.81,2.58,2.58,0,0,1-.2-1.1,2,2,0,0,1,.54-1.48,2.07,2.07,0,0,1,1.49-.52,2.75,2.75,0,0,1,.9.13,1.72,1.72,0,0,1,.66.41,2,2,0,0,1,.41.71,3.46,3.46,0,0,1,.21,1l-1,.28a4.55,4.55,0,0,0-.12-.78,1.24,1.24,0,0,0-.34-.58,1.17,1.17,0,0,0-1.39,0,.93.93,0,0,0-.25.71,1.37,1.37,0,0,0,.13.65,1.82,1.82,0,0,0,.43.53l1.47,1.28a4.79,4.79,0,0,1,.87,1,2.6,2.6,0,0,1,.37,1.41,2.17,2.17,0,0,1-.27,1.11,1.78,1.78,0,0,1-.73.71A2.31,2.31,0,0,1,166.46,132.13Z" transform="translate(-14.06 -22.22)"/><path class="cls-5" d="M170.6,132l-1.42-8.67h1l.93,6.23,1.17-6.19h.85l1.18,6.22.91-6.26h1L174.82,132h-.88l-1.2-6.42L171.52,132Z" transform="translate(-14.06 -22.22)"/><path class="cls-5" d="M179.4,132.13a2.52,2.52,0,0,1-1.4-.35,1.82,1.82,0,0,1-.75-1,4.45,4.45,0,0,1-.22-1.49V126a4.05,4.05,0,0,1,.23-1.47,1.8,1.8,0,0,1,.74-.94,2.61,2.61,0,0,1,1.4-.33,2.55,2.55,0,0,1,1.39.33,1.88,1.88,0,0,1,.74.94,4.05,4.05,0,0,1,.23,1.47v3.29a4.15,4.15,0,0,1-.23,1.48,1.94,1.94,0,0,1-.74,1A2.46,2.46,0,0,1,179.4,132.13Zm0-1a1.18,1.18,0,0,0,.73-.19,1.05,1.05,0,0,0,.33-.56,3.49,3.49,0,0,0,.09-.84v-3.8a3.34,3.34,0,0,0-.09-.83.93.93,0,0,0-.33-.53,1.18,1.18,0,0,0-.73-.19,1.16,1.16,0,0,0-.73.19.9.9,0,0,0-.34.53,3.34,3.34,0,0,0-.09.83v3.8a3.49,3.49,0,0,0,.09.84,1,1,0,0,0,.34.56A1.16,1.16,0,0,0,179.4,131.17Z" transform="translate(-14.06 -22.22)"/><path class="cls-5" d="M183,132v-8.67h1.75a3.93,3.93,0,0,1,1.43.23,1.61,1.61,0,0,1,.84.74,2.86,2.86,0,0,1,.27,1.33,3.32,3.32,0,0,1-.11.92,1.66,1.66,0,0,1-.34.69,1.32,1.32,0,0,1-.62.42L187.4,132h-1.16L185.1,128h-.94V132Zm1.21-4.93h.46a2.16,2.16,0,0,0,.83-.13.87.87,0,0,0,.48-.44,2.06,2.06,0,0,0,.15-.87,1.74,1.74,0,0,0-.28-1.09,1.39,1.39,0,0,0-1.1-.34h-.54Z" transform="translate(-14.06 -22.22)"/><path class="cls-5" d="M188.5,132v-8.67h1.89a3.23,3.23,0,0,1,1.52.3,1.64,1.64,0,0,1,.8.88A3.9,3.9,0,0,1,193,126v3.18a4.45,4.45,0,0,1-.24,1.56,1.8,1.8,0,0,1-.78.95,2.76,2.76,0,0,1-1.45.33Zm1.21-.87h.69a1.39,1.39,0,0,0,.94-.25,1.2,1.2,0,0,0,.34-.75,10.12,10.12,0,0,0,.06-1.19v-2.81a5.46,5.46,0,0,0-.09-1.1.91.91,0,0,0-.37-.6,1.68,1.68,0,0,0-.91-.2h-.66Z" transform="translate(-14.06 -22.22)"/><path class="cls-5" d="M90.23,100.49V86.62h3.6a8.09,8.09,0,0,1,2.41.32,2.81,2.81,0,0,1,1.54,1.12,4,4,0,0,1,.54,2.23,6.83,6.83,0,0,1-.15,1.51A3.09,3.09,0,0,1,97.66,93a2.47,2.47,0,0,1-1,.78l1.92,6.76h-2.9l-1.59-6.28h-1v6.28Zm2.83-8h.82A2.17,2.17,0,0,0,95,92.31a1.26,1.26,0,0,0,.56-.68,3.59,3.59,0,0,0,.16-1.12,2.56,2.56,0,0,0-.35-1.46A1.49,1.49,0,0,0,94,88.54h-1Z" transform="translate(-14.06 -22.22)"/><path class="cls-5" d="M100.17,100.49V86.62h6v1.95H103v3.69h2.49v2H103v4.35h3.26v1.91Z" transform="translate(-14.06 -22.22)"/><path class="cls-5" d="M111.26,100.68a4.34,4.34,0,0,1-2.14-.47,3,3,0,0,1-1.29-1.42,6.46,6.46,0,0,1-.5-2.42l2.43-.41a6.77,6.77,0,0,0,.18,1.43,1.67,1.67,0,0,0,.44.85,1,1,0,0,0,.75.28.78.78,0,0,0,.74-.34,1.57,1.57,0,0,0,.2-.79,2.45,2.45,0,0,0-.42-1.46,7.07,7.07,0,0,0-1.11-1.19l-1.43-1.25A5.63,5.63,0,0,1,107.85,92a3.88,3.88,0,0,1-.49-2,3.36,3.36,0,0,1,1-2.63,3.94,3.94,0,0,1,2.75-.92,3.82,3.82,0,0,1,1.71.34,2.67,2.67,0,0,1,1,.92,3.71,3.71,0,0,1,.51,1.25,7.83,7.83,0,0,1,.18,1.34l-2.41.36c0-.42-.06-.79-.11-1.11a1.62,1.62,0,0,0-.31-.75.86.86,0,0,0-.7-.28.82.82,0,0,0-.73.37,1.47,1.47,0,0,0-.24.81,2,2,0,0,0,.33,1.21,5.83,5.83,0,0,0,.92,1l1.4,1.23a8.21,8.21,0,0,1,1.5,1.72,4.3,4.3,0,0,1,.63,2.39,3.47,3.47,0,0,1-.45,1.76,3.21,3.21,0,0,1-1.24,1.24A3.87,3.87,0,0,1,111.26,100.68Z" transform="translate(-14.06 -22.22)"/><path class="cls-5" d="M116.09,100.49V86.62h6v1.95h-3.22v3.69h2.48v2h-2.48v4.35h3.25v1.91Z" transform="translate(-14.06 -22.22)"/><path class="cls-5" d="M124.9,100.49V88.73h-2.14V86.62h7.09v2.11h-2.11v11.76Z" transform="translate(-14.06 -22.22)"/><path class="cls-5" d="M137.19,100.49V95l-2.7-8.38h2.65l1.49,4.88L140,86.62h2.57L139.92,95v5.49Z" transform="translate(-14.06 -22.22)"/><path class="cls-5" d="M147.42,100.68a4.57,4.57,0,0,1-2.42-.55,3,3,0,0,1-1.27-1.56,6.86,6.86,0,0,1-.39-2.44V91a6.8,6.8,0,0,1,.39-2.43A3,3,0,0,1,145,87a5.79,5.79,0,0,1,4.86,0,3,3,0,0,1,1.28,1.54,6.71,6.71,0,0,1,.39,2.42v5.18a6.86,6.86,0,0,1-.39,2.44,3,3,0,0,1-1.28,1.56A4.64,4.64,0,0,1,147.42,100.68Zm0-2a1.14,1.14,0,0,0,.8-.24,1.23,1.23,0,0,0,.34-.67,4.29,4.29,0,0,0,.09-.9V90.27a4.13,4.13,0,0,0-.09-.89,1.23,1.23,0,0,0-.34-.66,1.1,1.1,0,0,0-.8-.25,1,1,0,0,0-.77.25,1.32,1.32,0,0,0-.35.66,4.91,4.91,0,0,0-.08.89v6.56a4.31,4.31,0,0,0,.08.9,1.22,1.22,0,0,0,.33.67A1.11,1.11,0,0,0,147.42,98.64Z" transform="translate(-14.06 -22.22)"/><path class="cls-5" d="M157.32,100.68a4.66,4.66,0,0,1-2.45-.54,2.87,2.87,0,0,1-1.23-1.56,7.69,7.69,0,0,1-.35-2.47V86.62h2.79V96.5a6.66,6.66,0,0,0,.08,1,1.54,1.54,0,0,0,.34.81,1,1,0,0,0,.82.31,1.07,1.07,0,0,0,.83-.31,1.62,1.62,0,0,0,.33-.81,6.67,6.67,0,0,0,.07-1V86.62h2.79v9.49a7.69,7.69,0,0,1-.35,2.47,2.83,2.83,0,0,1-1.23,1.56A4.62,4.62,0,0,1,157.32,100.68Z" transform="translate(-14.06 -22.22)"/><path class="cls-5" d="M163.31,100.49V86.62h3.6a8.06,8.06,0,0,1,2.4.32,2.77,2.77,0,0,1,1.54,1.12,4,4,0,0,1,.54,2.23,7.54,7.54,0,0,1-.14,1.51,3,3,0,0,1-.52,1.15,2.43,2.43,0,0,1-1,.78l1.92,6.76h-2.9l-1.59-6.28h-1v6.28Zm2.83-8H167a2.23,2.23,0,0,0,1.08-.22,1.25,1.25,0,0,0,.55-.68,3.3,3.3,0,0,0,.17-1.12,2.48,2.48,0,0,0-.36-1.46,1.48,1.48,0,0,0-1.31-.51h-1Z" transform="translate(-14.06 -22.22)"/><path class="cls-5" d="M177.52,100.49V86.62h4.41a3.93,3.93,0,0,1,2,.47,2.91,2.91,0,0,1,1.18,1.36,5.6,5.6,0,0,1,.38,2.16,4.58,4.58,0,0,1-.5,2.33,2.8,2.8,0,0,1-1.38,1.19,5.23,5.23,0,0,1-2,.35h-1.28v6Zm2.83-8h1a1.89,1.89,0,0,0,.95-.2,1,1,0,0,0,.46-.63,4.11,4.11,0,0,0,.12-1.09,4.54,4.54,0,0,0-.1-1.06,1.06,1.06,0,0,0-.42-.67,1.72,1.72,0,0,0-1-.24h-1Z" transform="translate(-14.06 -22.22)"/><path class="cls-5" d="M185.52,100.49l2.69-13.87h3.13L194,100.49H191.4l-.5-3h-2.19l-.53,3ZM189,95.72h1.67l-.84-5.6Z" transform="translate(-14.06 -22.22)"/><path class="cls-5" d="M198.91,100.68a4.34,4.34,0,0,1-2.14-.47,3,3,0,0,1-1.29-1.42,6.46,6.46,0,0,1-.5-2.42l2.43-.41a6.77,6.77,0,0,0,.18,1.43,1.67,1.67,0,0,0,.44.85,1,1,0,0,0,.75.28.78.78,0,0,0,.74-.34,1.57,1.57,0,0,0,.2-.79,2.45,2.45,0,0,0-.42-1.46,7.41,7.41,0,0,0-1.1-1.19l-1.44-1.25A5.63,5.63,0,0,1,195.5,92a3.88,3.88,0,0,1-.49-2,3.36,3.36,0,0,1,1-2.63,3.94,3.94,0,0,1,2.75-.92,3.82,3.82,0,0,1,1.71.34,2.67,2.67,0,0,1,1,.92A3.71,3.71,0,0,1,202,89a7.83,7.83,0,0,1,.18,1.34l-2.41.36a10.41,10.41,0,0,0-.11-1.11,1.52,1.52,0,0,0-.31-.75.86.86,0,0,0-.7-.28.82.82,0,0,0-.73.37,1.47,1.47,0,0,0-.24.81,2,2,0,0,0,.33,1.21,5.83,5.83,0,0,0,.92,1l1.4,1.23a7.93,7.93,0,0,1,1.5,1.72,4.3,4.3,0,0,1,.63,2.39A3.47,3.47,0,0,1,202,99a3.21,3.21,0,0,1-1.24,1.24A3.87,3.87,0,0,1,198.91,100.68Z" transform="translate(-14.06 -22.22)"/><path class="cls-5" d="M207.34,100.68a4.32,4.32,0,0,1-2.14-.47,3,3,0,0,1-1.29-1.42,6.65,6.65,0,0,1-.51-2.42l2.43-.41a8.39,8.39,0,0,0,.18,1.43,1.76,1.76,0,0,0,.45.85,1,1,0,0,0,.74.28.78.78,0,0,0,.75-.34,1.57,1.57,0,0,0,.2-.79,2.45,2.45,0,0,0-.42-1.46,7.07,7.07,0,0,0-1.11-1.19l-1.44-1.25A6,6,0,0,1,203.92,92a4,4,0,0,1-.48-2,3.36,3.36,0,0,1,1-2.63,3.92,3.92,0,0,1,2.75-.92,3.88,3.88,0,0,1,1.71.34,2.64,2.64,0,0,1,1,.92,3.73,3.73,0,0,1,.52,1.25,7.83,7.83,0,0,1,.18,1.34l-2.42.36a10.41,10.41,0,0,0-.11-1.11,1.44,1.44,0,0,0-.31-.75.82.82,0,0,0-.69-.28.84.84,0,0,0-.74.37,1.47,1.47,0,0,0-.24.81,2,2,0,0,0,.34,1.21,6.17,6.17,0,0,0,.91,1l1.41,1.23a8.21,8.21,0,0,1,1.5,1.72,4.38,4.38,0,0,1,.62,2.39,3.56,3.56,0,0,1-.44,1.76,3.21,3.21,0,0,1-1.24,1.24A3.87,3.87,0,0,1,207.34,100.68Z" transform="translate(-14.06 -22.22)"/><path class="cls-5" d="M213.64,100.49l-1.8-13.87h2.4l1,8.48,1.22-8.46h1.9l1.27,8.44,1-8.46h2.36l-1.78,13.87h-2.4l-1.35-8.78-1.29,8.78Z" transform="translate(-14.06 -22.22)"/><path class="cls-5" d="M228.27,100.68a4.57,4.57,0,0,1-2.42-.55,3,3,0,0,1-1.27-1.56,6.86,6.86,0,0,1-.39-2.44V91a6.8,6.8,0,0,1,.39-2.43A3,3,0,0,1,225.85,87a4.77,4.77,0,0,1,2.42-.53,4.72,4.72,0,0,1,2.44.54A3,3,0,0,1,232,88.53a6.71,6.71,0,0,1,.39,2.42v5.18a6.86,6.86,0,0,1-.39,2.44,3,3,0,0,1-1.28,1.56A4.62,4.62,0,0,1,228.27,100.68Zm0-2a1.14,1.14,0,0,0,.8-.24,1.24,1.24,0,0,0,.35-.67,5.11,5.11,0,0,0,.08-.9V90.27a4.91,4.91,0,0,0-.08-.89,1.24,1.24,0,0,0-.35-.66,1.1,1.1,0,0,0-.8-.25,1.05,1.05,0,0,0-.77.25,1.23,1.23,0,0,0-.34.66,4.13,4.13,0,0,0-.09.89v6.56a5.11,5.11,0,0,0,.08.9,1.22,1.22,0,0,0,.33.67A1.13,1.13,0,0,0,228.27,98.64Z" transform="translate(-14.06 -22.22)"/><path class="cls-5" d="M234.26,100.49V86.62h3.6a8.09,8.09,0,0,1,2.41.32,2.81,2.81,0,0,1,1.54,1.12,4,4,0,0,1,.54,2.23,6.83,6.83,0,0,1-.15,1.51,3.09,3.09,0,0,1-.51,1.15,2.47,2.47,0,0,1-1,.78l1.92,6.76h-2.9l-1.59-6.28h-1v6.28Zm2.83-8h.82a2.17,2.17,0,0,0,1.08-.22,1.26,1.26,0,0,0,.56-.68,3.59,3.59,0,0,0,.16-1.12,2.56,2.56,0,0,0-.35-1.46,1.49,1.49,0,0,0-1.31-.51h-1Z" transform="translate(-14.06 -22.22)"/><path class="cls-5" d="M244.2,100.49V86.62h3.39a6.62,6.62,0,0,1,2.75.46,2.65,2.65,0,0,1,1.39,1.42,6.25,6.25,0,0,1,.41,2.47v5a6.59,6.59,0,0,1-.41,2.54,2.7,2.7,0,0,1-1.38,1.46,6.15,6.15,0,0,1-2.69.47Zm2.82-2h.6a2,2,0,0,0,1.12-.24,1.09,1.09,0,0,0,.42-.74,6.87,6.87,0,0,0,.09-1.21V90.61a5,5,0,0,0-.11-1.15,1.08,1.08,0,0,0-.45-.65,2.24,2.24,0,0,0-1.09-.2H247Z" transform="translate(-14.06 -22.22)"/><path class="cls-11" d="M127.25,266.06a3.06,3.06,0,0,1-1.69-.4,2.07,2.07,0,0,1-.87-1.12,5,5,0,0,1-.25-1.66v-3.46a5.14,5.14,0,0,1,.25-1.71,2,2,0,0,1,.87-1.11,3.16,3.16,0,0,1,1.69-.39,3.19,3.19,0,0,1,1.62.35,1.88,1.88,0,0,1,.83,1,4.06,4.06,0,0,1,.24,1.46v.8H128v-.9a6,6,0,0,0,0-.62,1,1,0,0,0-.2-.48.71.71,0,0,0-.55-.18.74.74,0,0,0-.57.19.89.89,0,0,0-.22.49,3.51,3.51,0,0,0,0,.67v4.37a3.65,3.65,0,0,0,.06.7.85.85,0,0,0,.25.46.76.76,0,0,0,.53.16.7.7,0,0,0,.54-.18.91.91,0,0,0,.2-.49,4.63,4.63,0,0,0,0-.65v-.94h1.9v.79a4.27,4.27,0,0,1-.24,1.49,2,2,0,0,1-.82,1A3,3,0,0,1,127.25,266.06Z" transform="translate(-14.06 -22.22)"/><path class="cls-11" d="M131.16,265.93v-9.6h2v3.95h1.69v-3.95h2v9.6h-2v-4.25h-1.69v4.25Z" transform="translate(-14.06 -22.22)"/><path class="cls-11" d="M137.78,265.93l1.86-9.6h2.17l1.85,9.6h-1.82l-.34-2.11H140l-.37,2.11Zm2.38-3.3h1.15l-.58-3.88Z" transform="translate(-14.06 -22.22)"/><path class="cls-11" d="M144.56,265.93v-9.6h1.36l2.14,5v-5h1.61v9.6h-1.3l-2.14-5.31v5.31Z" transform="translate(-14.06 -22.22)"/><path class="cls-11" d="M153.58,266.08a2.6,2.6,0,0,1-1.54-.41,2.23,2.23,0,0,1-.81-1.16,5.83,5.83,0,0,1-.24-1.75v-3.22a5.9,5.9,0,0,1,.24-1.78,2.17,2.17,0,0,1,.88-1.15,3.13,3.13,0,0,1,1.69-.4,3.29,3.29,0,0,1,1.63.35,2,2,0,0,1,.86,1,3.93,3.93,0,0,1,.26,1.49v.56h-1.91v-.68a4.47,4.47,0,0,0,0-.67.74.74,0,0,0-.22-.45.77.77,0,0,0-.55-.17.74.74,0,0,0-.57.2,1.08,1.08,0,0,0-.23.52,4.73,4.73,0,0,0,0,.67v4.25a3.29,3.29,0,0,0,.07.73.9.9,0,0,0,.27.5.83.83,0,0,0,.56.17.8.8,0,0,0,.57-.19,1,1,0,0,0,.28-.51,3.38,3.38,0,0,0,.07-.74v-1h-.93V261h2.7v4.93h-1.28l-.12-.86a1.83,1.83,0,0,1-.57.72A1.65,1.65,0,0,1,153.58,266.08Z" transform="translate(-14.06 -22.22)"/><path class="cls-11" d="M157.91,265.93v-9.6h4.18v1.35h-2.22v2.55h1.72v1.36h-1.72v3h2.25v1.32Z" transform="translate(-14.06 -22.22)"/><path class="cls-11" d="M166.07,265.93v-9.6h3a2.74,2.74,0,0,1,1.42.33,2,2,0,0,1,.81.94,3.71,3.71,0,0,1,.26,1.49,3.09,3.09,0,0,1-.35,1.62,1.94,1.94,0,0,1-.95.82,3.75,3.75,0,0,1-1.39.24H168v4.16Zm2-5.53h.69a1.3,1.3,0,0,0,.66-.14.67.67,0,0,0,.31-.43,2.68,2.68,0,0,0,.09-.76,3.79,3.79,0,0,0-.07-.74.75.75,0,0,0-.29-.46,1.22,1.22,0,0,0-.71-.16H168Z" transform="translate(-14.06 -22.22)"/><path class="cls-11" d="M171.6,265.93l1.87-9.6h2.17l1.85,9.6h-1.82l-.34-2.11h-1.52l-.37,2.11Zm2.39-3.3h1.15l-.58-3.88Z" transform="translate(-14.06 -22.22)"/><path class="cls-11" d="M180.88,266.06a3,3,0,0,1-1.49-.32,2.1,2.1,0,0,1-.89-1,4.46,4.46,0,0,1-.35-1.67l1.68-.29a4.87,4.87,0,0,0,.13,1,1.1,1.1,0,0,0,.31.59.67.67,0,0,0,.51.2.55.55,0,0,0,.52-.24,1.05,1.05,0,0,0,.13-.54,1.68,1.68,0,0,0-.29-1,5.13,5.13,0,0,0-.76-.82l-1-.87a4.21,4.21,0,0,1-.87-1,2.7,2.7,0,0,1-.34-1.39,2.32,2.32,0,0,1,.7-1.82,2.67,2.67,0,0,1,1.9-.64,2.6,2.6,0,0,1,1.19.24,1.89,1.89,0,0,1,.71.63,2.76,2.76,0,0,1,.36.87,4.94,4.94,0,0,1,.12.93l-1.67.25a7.34,7.34,0,0,0-.08-.77,1,1,0,0,0-.21-.52.59.59,0,0,0-.48-.19.56.56,0,0,0-.51.25,1,1,0,0,0-.17.56,1.39,1.39,0,0,0,.24.84,3.84,3.84,0,0,0,.63.68l1,.86a5.15,5.15,0,0,1,1,1.19,3,3,0,0,1,.43,1.65,2.38,2.38,0,0,1-.31,1.22,2.16,2.16,0,0,1-.86.86A2.64,2.64,0,0,1,180.88,266.06Z" transform="translate(-14.06 -22.22)"/><path class="cls-11" d="M186.71,266.06a3,3,0,0,1-1.48-.32,2.07,2.07,0,0,1-.9-1,4.46,4.46,0,0,1-.35-1.67l1.69-.29a4.31,4.31,0,0,0,.12,1,1.18,1.18,0,0,0,.31.59.69.69,0,0,0,.52.2.53.53,0,0,0,.51-.24,1.06,1.06,0,0,0,.14-.54,1.75,1.75,0,0,0-.29-1,5.23,5.23,0,0,0-.77-.82l-1-.87a4,4,0,0,1-.88-1,2.7,2.7,0,0,1-.33-1.39,2.34,2.34,0,0,1,.69-1.82,2.68,2.68,0,0,1,1.9-.64,2.57,2.57,0,0,1,1.19.24,1.85,1.85,0,0,1,.72.63,2.74,2.74,0,0,1,.35.87,5.94,5.94,0,0,1,.13.93l-1.68.25a7.56,7.56,0,0,0-.07-.77,1,1,0,0,0-.22-.52.67.67,0,0,0-1,.06,1,1,0,0,0-.16.56,1.39,1.39,0,0,0,.23.84,3.84,3.84,0,0,0,.63.68l1,.86a5.35,5.35,0,0,1,1,1.19,3,3,0,0,1,.44,1.65,2.48,2.48,0,0,1-.31,1.22,2.22,2.22,0,0,1-.86.86A2.68,2.68,0,0,1,186.71,266.06Z" transform="translate(-14.06 -22.22)"/><path class="cls-11" d="M191.07,265.93l-1.24-9.6h1.66l.66,5.87.84-5.86h1.32l.88,5.85.66-5.86h1.64l-1.24,9.6H194.6l-.94-6.08-.89,6.08Z" transform="translate(-14.06 -22.22)"/><path class="cls-11" d="M201.2,266.06a3.11,3.11,0,0,1-1.67-.38,2.12,2.12,0,0,1-.89-1.08,5,5,0,0,1-.26-1.69v-3.58a4.86,4.86,0,0,1,.26-1.68,2.05,2.05,0,0,1,.89-1.07,3.21,3.21,0,0,1,1.67-.37,3.39,3.39,0,0,1,1.69.37,2.13,2.13,0,0,1,.89,1.07,4.63,4.63,0,0,1,.26,1.68v3.58a4.73,4.73,0,0,1-.26,1.69,2.12,2.12,0,0,1-.89,1.08A3.18,3.18,0,0,1,201.2,266.06Zm0-1.41a.77.77,0,0,0,.56-.17A.91.91,0,0,0,202,264a3,3,0,0,0,.06-.62v-4.54a3,3,0,0,0-.06-.62,1,1,0,0,0-.23-.46.81.81,0,0,0-.56-.17.73.73,0,0,0-.53.17.89.89,0,0,0-.24.46,3,3,0,0,0-.06.62v4.54a4,4,0,0,0,0,.62.91.91,0,0,0,.23.46A.74.74,0,0,0,201.2,264.65Z" transform="translate(-14.06 -22.22)"/><path class="cls-11" d="M205.35,265.93v-9.6h2.49a5.38,5.38,0,0,1,1.66.22,1.91,1.91,0,0,1,1.07.78,2.72,2.72,0,0,1,.38,1.54,4.77,4.77,0,0,1-.11,1.05,1.9,1.9,0,0,1-.35.79,1.67,1.67,0,0,1-.72.54l1.33,4.68h-2L208,261.58h-.68v4.35Zm2-5.51h.56a1.56,1.56,0,0,0,.75-.15.91.91,0,0,0,.39-.47,2.48,2.48,0,0,0,.11-.78,1.77,1.77,0,0,0-.24-1,1,1,0,0,0-.91-.35h-.66Z" transform="translate(-14.06 -22.22)"/><path class="cls-11" d="M212.23,265.93v-9.6h2.34a4.87,4.87,0,0,1,1.91.31,1.86,1.86,0,0,1,1,1,4.42,4.42,0,0,1,.29,1.71v3.5a4.56,4.56,0,0,1-.29,1.75,1.93,1.93,0,0,1-.95,1,4.34,4.34,0,0,1-1.87.32Zm2-1.36h.42a1.35,1.35,0,0,0,.77-.17.77.77,0,0,0,.29-.51,5,5,0,0,0,.06-.84v-4a3.48,3.48,0,0,0-.07-.8.69.69,0,0,0-.31-.44,1.47,1.47,0,0,0-.75-.14h-.41Z" transform="translate(-14.06 -22.22)"/><path class="cls-5" d="M132.12,190.59a2.38,2.38,0,0,1-1.43-.38,2,2,0,0,1-.7-1,4.75,4.75,0,0,1-.2-1.45v-3.06a5,5,0,0,1,.2-1.53,1.83,1.83,0,0,1,.7-1,2.54,2.54,0,0,1,1.43-.35,2.41,2.41,0,0,1,1.29.3,1.65,1.65,0,0,1,.68.85,3.81,3.81,0,0,1,.21,1.34v.68h-1.14v-.61a7.08,7.08,0,0,0,0-.85,1,1,0,0,0-.26-.57,1.39,1.39,0,0,0-1.47,0,1,1,0,0,0-.3.62,5.18,5.18,0,0,0-.07.93v3.44a4.05,4.05,0,0,0,.1,1,.9.9,0,0,0,.36.54,1.15,1.15,0,0,0,.66.16,1,1,0,0,0,.71-.22,1,1,0,0,0,.26-.6,6,6,0,0,0,.06-.9v-.64h1.14v.64a4.49,4.49,0,0,1-.19,1.39,1.83,1.83,0,0,1-.66.95A2.31,2.31,0,0,1,132.12,190.59Z" transform="translate(-14.06 -22.22)"/><path class="cls-5" d="M137.67,190.59a2.52,2.52,0,0,1-1.4-.34,1.86,1.86,0,0,1-.75-1,4.45,4.45,0,0,1-.22-1.49v-3.29a4.05,4.05,0,0,1,.23-1.47,1.81,1.81,0,0,1,.75-.94,2.56,2.56,0,0,1,1.39-.32,2.53,2.53,0,0,1,1.39.33,1.85,1.85,0,0,1,.75.94,4.22,4.22,0,0,1,.23,1.46v3.3a4.42,4.42,0,0,1-.23,1.48,2,2,0,0,1-.75,1A2.44,2.44,0,0,1,137.67,190.59Zm0-1a1.1,1.1,0,0,0,.73-.2,1,1,0,0,0,.33-.55,3.49,3.49,0,0,0,.09-.84v-3.8a3.34,3.34,0,0,0-.09-.83,1,1,0,0,0-.33-.54,1.23,1.23,0,0,0-.73-.18,1.25,1.25,0,0,0-.73.18,1,1,0,0,0-.34.54,4,4,0,0,0-.08.83v3.8a4.13,4.13,0,0,0,.08.84,1,1,0,0,0,.34.55A1.11,1.11,0,0,0,137.67,189.64Z" transform="translate(-14.06 -22.22)"/><path class="cls-5" d="M141.22,190.5v-8.67h.83l2.46,5.76v-5.76h1v8.67h-.77l-2.49-5.92v5.92Z" transform="translate(-14.06 -22.22)"/><path class="cls-5" d="M146.87,190.5v-8.67h3.35v.87h-2.14v2.89h1.66v.85h-1.66v4.06Z" transform="translate(-14.06 -22.22)"/><path class="cls-5" d="M151.12,190.5v-8.67h1.19v8.67Z" transform="translate(-14.06 -22.22)"/><path class="cls-5" d="M153.71,190.5v-8.67h1.74a4,4,0,0,1,1.44.23,1.65,1.65,0,0,1,.84.74,2.83,2.83,0,0,1,.27,1.33,3.74,3.74,0,0,1-.11.92,1.72,1.72,0,0,1-.34.69,1.28,1.28,0,0,1-.62.41l1.23,4.35H157l-1.13-4.07h-.94v4.07Zm1.21-4.94h.46a2.39,2.39,0,0,0,.83-.12.88.88,0,0,0,.47-.44,2.06,2.06,0,0,0,.15-.87,1.73,1.73,0,0,0-.28-1.1,1.4,1.4,0,0,0-1.1-.33h-.53Z" transform="translate(-14.06 -22.22)"/><path class="cls-5" d="M159.24,190.5l.16-8.67h1.19l1.53,7,1.54-7h1.17l.17,8.67h-1l-.09-6.29-1.47,6.29h-.69l-1.45-6.29-.1,6.29Z" transform="translate(-14.06 -22.22)"/><path class="cls-5" d="M168.77,190.5v-8.67h2.15a2.49,2.49,0,0,1,1.25.28,1.72,1.72,0,0,1,.68.82,3.58,3.58,0,0,1,.21,1.3,2.78,2.78,0,0,1-.24,1.19,1.76,1.76,0,0,1-.71.77,2.34,2.34,0,0,1-1.18.27h-1v4Zm1.21-4.9h.56a2.25,2.25,0,0,0,.82-.12.79.79,0,0,0,.43-.41,2.25,2.25,0,0,0,.13-.83,3.79,3.79,0,0,0-.09-1,.64.64,0,0,0-.38-.46,2.31,2.31,0,0,0-.9-.13H170Z" transform="translate(-14.06 -22.22)"/><path class="cls-5" d="M173,190.5l1.84-8.67H176l1.85,8.67h-1.15l-.39-2.19h-1.77l-.42,2.19Zm1.71-3.05h1.45l-.73-3.91Z" transform="translate(-14.06 -22.22)"/><path class="cls-5" d="M180.81,190.59a2.21,2.21,0,0,1-1.25-.32,2,2,0,0,1-.75-.89,3.46,3.46,0,0,1-.3-1.31l1.07-.29a5.16,5.16,0,0,0,.14.89,1.68,1.68,0,0,0,.37.7,1.1,1.1,0,0,0,1.43,0,1.1,1.1,0,0,0,.24-.76,1.52,1.52,0,0,0-.27-.94,4.9,4.9,0,0,0-.67-.72l-1.46-1.29a2.54,2.54,0,0,1-.63-.82,2.69,2.69,0,0,1-.2-1.09,2,2,0,0,1,.54-1.48,2.07,2.07,0,0,1,1.49-.52,2.75,2.75,0,0,1,.9.13,1.72,1.72,0,0,1,.66.41,2.09,2.09,0,0,1,.41.7,3.45,3.45,0,0,1,.21,1l-1,.28a5.92,5.92,0,0,0-.13-.79,1.16,1.16,0,0,0-.34-.57,1.17,1.17,0,0,0-1.39,0,.92.92,0,0,0-.25.71,1.39,1.39,0,0,0,.13.65,2,2,0,0,0,.44.53l1.46,1.28a4.79,4.79,0,0,1,.87,1,2.6,2.6,0,0,1,.37,1.41,2.17,2.17,0,0,1-.27,1.11,1.78,1.78,0,0,1-.73.71A2.31,2.31,0,0,1,180.81,190.59Z" transform="translate(-14.06 -22.22)"/><path class="cls-5" d="M185.87,190.59a2.21,2.21,0,0,1-1.25-.32,2,2,0,0,1-.75-.89,3.66,3.66,0,0,1-.3-1.31l1.07-.29a5.16,5.16,0,0,0,.14.89,1.68,1.68,0,0,0,.37.7,1.1,1.1,0,0,0,1.43,0,1.1,1.1,0,0,0,.24-.76,1.52,1.52,0,0,0-.27-.94,4.9,4.9,0,0,0-.67-.72l-1.46-1.29a2.54,2.54,0,0,1-.63-.82,2.69,2.69,0,0,1-.2-1.09,2,2,0,0,1,.54-1.48,2.07,2.07,0,0,1,1.49-.52,2.75,2.75,0,0,1,.9.13,1.65,1.65,0,0,1,.66.41,2.29,2.29,0,0,1,.42.7,3.85,3.85,0,0,1,.2,1l-1,.28a4.65,4.65,0,0,0-.13-.79,1.16,1.16,0,0,0-.34-.57,1.17,1.17,0,0,0-1.39,0,.92.92,0,0,0-.25.71,1.39,1.39,0,0,0,.13.65,2,2,0,0,0,.44.53l1.46,1.28a4.79,4.79,0,0,1,.87,1,2.6,2.6,0,0,1,.37,1.41,2.17,2.17,0,0,1-.27,1.11,1.78,1.78,0,0,1-.73.71A2.31,2.31,0,0,1,185.87,190.59Z" transform="translate(-14.06 -22.22)"/><path class="cls-5" d="M190,190.5l-1.41-8.67h1l.93,6.23,1.17-6.2h.85l1.18,6.23.91-6.26h1l-1.39,8.67h-.87l-1.21-6.42-1.22,6.42Z" transform="translate(-14.06 -22.22)"/><path class="cls-5" d="M198.81,190.59a2.52,2.52,0,0,1-1.4-.34,1.86,1.86,0,0,1-.75-1,4.45,4.45,0,0,1-.22-1.49v-3.29a4.05,4.05,0,0,1,.23-1.47,1.81,1.81,0,0,1,.75-.94,2.56,2.56,0,0,1,1.39-.32,2.53,2.53,0,0,1,1.39.33,1.91,1.91,0,0,1,.75.94,4.22,4.22,0,0,1,.23,1.46v3.3a4.42,4.42,0,0,1-.23,1.48,2.06,2.06,0,0,1-.75,1A2.44,2.44,0,0,1,198.81,190.59Zm0-1a1.11,1.11,0,0,0,.73-.2,1,1,0,0,0,.33-.55,3.49,3.49,0,0,0,.09-.84v-3.8a3.34,3.34,0,0,0-.09-.83,1,1,0,0,0-.33-.54,1.57,1.57,0,0,0-1.46,0,1,1,0,0,0-.34.54,3.38,3.38,0,0,0-.08.83v3.8a3.52,3.52,0,0,0,.08.84,1,1,0,0,0,.34.55A1.11,1.11,0,0,0,198.81,189.64Z" transform="translate(-14.06 -22.22)"/><path class="cls-5" d="M202.36,190.5v-8.67h1.75a3.89,3.89,0,0,1,1.43.23,1.57,1.57,0,0,1,.84.74,2.83,2.83,0,0,1,.27,1.33,3.76,3.76,0,0,1-.1.92,1.73,1.73,0,0,1-.35.69,1.24,1.24,0,0,1-.62.41l1.23,4.35h-1.16l-1.14-4.07h-.94v4.07Zm1.21-4.94H204a2.45,2.45,0,0,0,.84-.12.92.92,0,0,0,.47-.44,2.06,2.06,0,0,0,.15-.87,1.79,1.79,0,0,0-.28-1.1,1.41,1.41,0,0,0-1.1-.33h-.54Z" transform="translate(-14.06 -22.22)"/><path class="cls-5" d="M207.92,190.5v-8.67h1.88a3.23,3.23,0,0,1,1.52.3,1.7,1.7,0,0,1,.81.88,3.88,3.88,0,0,1,.24,1.46v3.19a4.39,4.39,0,0,1-.24,1.55,1.93,1.93,0,0,1-.79,1,2.76,2.76,0,0,1-1.45.33Zm1.2-.87h.69a1.37,1.37,0,0,0,.94-.26,1.15,1.15,0,0,0,.34-.75,9.82,9.82,0,0,0,.06-1.18v-2.82a5.35,5.35,0,0,0-.09-1.09.93.93,0,0,0-.37-.61,1.69,1.69,0,0,0-.91-.19h-.66Z" transform="translate(-14.06 -22.22)"/></g><g id="Characters"><path class="cls-12" d="M93.14,366.34l-7.75,40.34L73,443.57l-3.06,5.76s-3.43,5-3.79,8.82a4.35,4.35,0,0,0,5.95,4.68c2.7-1.26,4.14-6.48,4.68-8.82s1.62-6.48,2-7.92a9,9,0,0,1,1.08-2.52s21.4-35.63,21.4-36.71,10.08-27.37,10.08-27.37l2,.18L119.25,409l-16.57,34.4s-5.22,6.12-4.86,6.84a24.47,24.47,0,0,0,4.32,4.33c1.08.72,5,7,7.92,7.74s4,1.44,3.43-.9a70.9,70.9,0,0,0-2.53-7c-.36-1.08-1.07-8.62-1.07-8.62L134.74,413l-3.25-40.52Z" transform="translate(-14.06 -22.22)"/><path class="cls-12" d="M104.36,454.43a73.09,73.09,0,0,1-5.82-5.71c-.5.76-.82,1.35-.72,1.54a24.47,24.47,0,0,0,4.32,4.33c1.08.72,5,7,7.92,7.74,1.93.48,3,1,3.42.53C107.63,461.32,105.91,455.6,104.36,454.43Z" transform="translate(-14.06 -22.22)"/><path class="cls-12" d="M75.45,458.34c-1.88,1.89-4.08,3.31-6.42,2.61-2.75-.82-2.09-5-1.36-7.6a15.64,15.64,0,0,0-1.52,4.8,4.35,4.35,0,0,0,5.95,4.68C73.57,462.15,74.67,460.27,75.45,458.34Z" transform="translate(-14.06 -22.22)"/><path class="cls-13" d="M93.14,366.34l-7.75,40.34L73,443.57s1.1,3.95,6,1.78a9,9,0,0,1,.85-1.78s21.4-35.63,21.4-36.71,10.08-27.37,10.08-27.37l2,.18L119.25,409l-16.57,34.4s2.16,3.63,7.28,2.29L134.74,413l-3.25-40.52Z" transform="translate(-14.06 -22.22)"/><path class="cls-7" d="M123.55,310.1l-4.49.83L98.48,370.77s3.9,6.85,16.56,6.74,16.32-2.13,16.32-2.13L131,339.19l5.19-23.94S128.16,310.34,123.55,310.1Z" transform="translate(-14.06 -22.22)"/><path class="cls-7" d="M146.73,293.67a50.89,50.89,0,0,1-.29,6.25c-.28.76-1.7,1.8-1.7,2.47s1.61,3.31,1.33,4-3.13,1.42-3.13,1.42-2.37,4.64-3.51,5.11-5.59-1.8-5.59-1.8L131.28,319s-1.13,2.18-5.4,1.51-5.78-2.27-6-3.31-.66-1.33-.09-2.47,1.42-3.6,1.42-3.6l5.4-11.37.85-5.21s1.9-3.69,8.91-4.45S146.73,293.67,146.73,293.67Z" transform="translate(-14.06 -22.22)"/><path class="cls-14" d="M139.43,305.8a2.91,2.91,0,0,0,2.37,2.27" transform="translate(-14.06 -22.22)"/><path class="cls-14" d="M144.55,299.45a2.93,2.93,0,0,0-2.84-1" transform="translate(-14.06 -22.22)"/><path class="cls-5" d="M143.12,301.71c-.11.48-.46.82-.79.75s-.52-.52-.42-1,.45-.83.79-.76S143.22,301.22,143.12,301.71Z" transform="translate(-14.06 -22.22)"/><polygon class="cls-13" points="119.78 288.88 117.04 286.42 119.03 291.53 119.78 288.88"/><path class="cls-8" d="M132,298.22a41.12,41.12,0,0,0,4.92-2c1-.67-.37-2.85.48-3.6s4.55-1.14,6.54-.48,2.08,2.18,4,1.9,4.26-1.8,3.22-4.46a9.15,9.15,0,0,0-6.73-5.21c-2.56-.28-5.21.38-8.53,0s-6.72-1.61-8.53,2-3.31,7.49-2.65,9.38.95,4.27,1.71,4.65S132,298.22,132,298.22Z" transform="translate(-14.06 -22.22)"/><path class="cls-7" d="M132.42,299.54s-.38-4.54-2.37-3.69-1.8,5.21-.57,6.06a1.72,1.72,0,0,0,2.28-.47" transform="translate(-14.06 -22.22)"/><path class="cls-15" d="M118.49,319.35,99.54,380.84s-4.93-3.88-7.67-6.54-3.41-3.41-3.41-3.41l6.82-15.06L96.51,351l-20,13.27-3.41-6.73,17-15.16s10.42-28.9,11.08-29.28,19.62-2.93,19.62-2.93Z" transform="translate(-14.06 -22.22)"/><path class="cls-7" d="M122.57,308.55s-2.85-.76-4.27.66-6.63,8.91-5.3,9.66,4.92-1.23,4.92-1.23l.57,1.71Z" transform="translate(-14.06 -22.22)"/><line class="cls-14" x1="88.61" y1="300.44" x2="82.45" y2="328.77"/><polyline class="cls-14" points="98.75 308.11 89.18 306.98 88.61 310.1 98.28 311.81 98.75 310.1"/><path class="cls-14" d="M101.85,326.17s-1-5.63-1.23-8.67" transform="translate(-14.06 -22.22)"/><path class="cls-14" d="M101.29,327.41s-1.69-2.82-2.81-4.62" transform="translate(-14.06 -22.22)"/><path class="cls-15" d="M131.28,319s-4.66,19.58-4.54,25.55,1.69,37.61,1.69,37.61,6.07-1.13,7.09-1.47l4.95-1.57s-6.87-22.3-6.87-23.08,1.24-6.08,1.24-6.08,4.06,9.12,4.62,9.79,16.07,7.67,16.07,7.67l1.38-8.23-9.8-9s-2.13-17-2.13-18.35.56-9.91.56-9.91l-12.27-9.68Z" transform="translate(-14.06 -22.22)"/><path class="cls-7" d="M168.82,364.62s-4.91,1.07-6.17,1.19a14.4,14.4,0,0,1-4.73-.5c-1.07-.38-3.15-1.2-3.15-1.2a3.36,3.36,0,0,1-.12-1.95c.31-.69,2-.63,2-.63l10.65,1.07Z" transform="translate(-14.06 -22.22)"/><line class="cls-14" x1="126.3" y1="307.66" x2="120.79" y2="327.7"/><polyline class="cls-14" points="123.26 312.95 116.62 311.26 116.28 313.96 122.14 315.54"/><line class="cls-14" x1="124.16" y1="316.22" x2="127.54" y2="311.38"/><path class="cls-7" d="M130.79,322.12l1.24-1.24s2.81,3.26,3.38,2.25,1.68-3.6.78-7.88-2.35-4.15-2.35-4.15L131.28,319Z" transform="translate(-14.06 -22.22)"/><path class="cls-7" d="M193.94,367.54l-5.92,40-13.57,38.93s-4.68,5-6,10.66,2.42,6,4.36,4.52,6.62-13.89,6.78-14.53S200,412,200.3,411.56s10-28.76,10-28.76l7.1,27.79L232.12,451s1,6.95,3.4,9.7,6,4.68,6.62,2.26.16-6.63-1.62-8.56a72.08,72.08,0,0,1-4.52-6l-5.17-41.68-3.2-39Z" transform="translate(-14.06 -22.22)"/><path class="cls-8" d="M230.83,406.71l-3.2-39-33.69-.19-5.92,40L177.3,438.28l6.23,1.93c5.93-10.24,16.54-28.3,16.77-28.65s10-28.76,10-28.76l7.1,27.79,11.66,32,5.95-2Z" transform="translate(-14.06 -22.22)"/><path class="cls-8" d="M172.84,461.63c1-.75,2.75-4.46,4.22-7.95l-3.41,3.92-4-1.13.7-4.09a19.43,19.43,0,0,0-1.83,4.73C167.18,462.77,170.9,463.09,172.84,461.63Z" transform="translate(-14.06 -22.22)"/><path class="cls-8" d="M242.14,462.93c.64-2.43.16-6.63-1.62-8.56l-.38-.44.87,5.44-3.23,1.13-5.13-6.79c.51,2.25,1.44,5.33,2.87,7C237.94,463.41,241.49,465.35,242.14,462.93Z" transform="translate(-14.06 -22.22)"/><path class="cls-7" d="M193.94,367.54s6.94,12.27,16.57,12.82,17.12-12.63,17.12-12.63l-33.06-1.32Z" transform="translate(-14.06 -22.22)"/><path class="cls-15" d="M204.85,321S194,326.28,193.94,327s-7.36,29.64-7.36,29.64-2.59,5.79.67,7.61,9.08-4.22,9.08-4.22l-2.39,7.56a50.32,50.32,0,0,0,18.17,4.4c8,.41,15.52-4.21,15.52-4.21l-1.15-8s6.72,4.53,9.11,3.48,4.19-3.19,4.19-4.62-1.14-1.82-3.06-3.93-5.07-12.54-5.07-12.54-2.68-14.35-3.35-15.5-9-4.88-9-4.88Z" transform="translate(-14.06 -22.22)"/><polyline class="cls-3" points="184.05 310.4 185.94 316.16 182.27 337.75"/><polyline class="cls-3" points="212.4 311.4 211.07 315.94 212.42 337.56"/><path class="cls-3" d="M194.79,364.63s16.28,5,32.45.45" transform="translate(-14.06 -22.22)"/><path class="cls-7" d="M74.31,349.48a32.57,32.57,0,0,0-3.59.95c-.63.32-.74,1.59-1.59,2.12s-2.11,1.27-1.37,1.8,2.28.92,3-.12a5.22,5.22,0,0,1,3-1.81" transform="translate(-14.06 -22.22)"/><path class="cls-7" d="M181.77,364a3.69,3.69,0,0,1-1.79-.59,5.82,5.82,0,0,0-2.31-.86c-.6-.14-.4-.67.46-1a5.45,5.45,0,0,1,3.25.13,4.2,4.2,0,0,1,1.19.73Z" transform="translate(-14.06 -22.22)"/><rect class="cls-6" x="128.68" y="331.51" width="182.3" height="8.42"/><path class="cls-6" d="M109.9,320.11a37.84,37.84,0,1,0,37.83,37.83A37.84,37.84,0,0,0,109.9,320.11Zm0,65.77a27.94,27.94,0,1,1,27.93-27.94A27.94,27.94,0,0,1,109.9,385.88Z" transform="translate(-14.06 -22.22)"/><path class="cls-6" d="M292.26,353.73v39.49H300c0-.07,0-.14,0-.22a9.17,9.17,0,1,1,18.34,0c0,.08,0,.15,0,.22H325V353.73Z" transform="translate(-14.06 -22.22)"/><path class="cls-6" d="M249.65,353.73V376.4h4.45v-.13a5.26,5.26,0,1,1,10.52,0v.13h3.84V353.73Z" transform="translate(-14.06 -22.22)"/><path class="cls-8" d="M218.07,291.21s2.63-2.15,1.43-4.3-6.45-5.33-8.6-4.54-6.37,5.26-6.69,6.93,3,4,3.66,4.07S213.93,290.26,218.07,291.21Z" transform="translate(-14.06 -22.22)"/><path class="cls-8" d="M212.89,290.5s-8.6,2.39-11,7-2.55,5.65-1.2,7.88,4.7,6.22,7.81,7.81,13-.72,13-.72,3-1.35,4-3.74,3.1-5.74,1.67-9.32-7.81-8.52-9.8-9.08A9.52,9.52,0,0,0,212.89,290.5Z" transform="translate(-14.06 -22.22)"/><path class="cls-7" d="M219.15,296.54s-4.29,2.64-6.49,4.18a21.54,21.54,0,0,1-4.84,2.42,2.86,2.86,0,0,0-1.54,3.19c.44,2.31,1.27,10.29,1.27,10.29l-1.49,3.24,6.38,7,5.06-6.6.55-3.41s4.62-2.86,4.73-3.52S224.21,303,224.1,302,219.15,296.54,219.15,296.54Z" transform="translate(-14.06 -22.22)"/><path class="cls-14" d="M219.9,303.32s-.24,2.15-.24,2.47,1.91,2,1.2,2.63a6.57,6.57,0,0,1-2.15,1" transform="translate(-14.06 -22.22)"/><path class="cls-14" d="M218.94,311.45s-.79.87-2.54-1" transform="translate(-14.06 -22.22)"/><path class="cls-13" d="M218.05,316.89a8,8,0,0,1-2.53-.66c-.72-.48-2.79-2.08-2.79-2.08l4.06,7,.71-.86Z" transform="translate(-14.06 -22.22)"/><path class="cls-7" d="M208.67,305.23s-1.51-4.54-3.27-2,1,6.14,2.39,6.06" transform="translate(-14.06 -22.22)"/><ellipse class="cls-5" cx="201.9" cy="282.77" rx="0.68" ry="0.96"/><ellipse class="cls-5" cx="207.87" cy="282.77" rx="0.68" ry="0.96"/><path class="cls-14" d="M214.17,302.92a2.77,2.77,0,0,1,3.34-.32" transform="translate(-14.06 -22.22)"/><path class="cls-14" d="M220.62,302.45s2.15-.88,2.63.79" transform="translate(-14.06 -22.22)"/><polygon class="cls-7" points="191.98 295.19 197.56 302.28 193.74 306.43 189.44 298.7 191.98 295.19"/><polygon class="cls-7" points="197.56 302.28 198.38 304.68 196.44 303.72 197.56 302.28"/><polygon class="cls-7" points="199.55 301.09 202.26 306.43 206.4 299.42 203.61 297.19 199.55 301.09"/><polygon class="cls-7" points="199.55 301.09 198.38 304.68 200.35 302.76 199.55 301.09"/><path class="cls-7" d="M182.06,360s-1.13,3.21-.82,3.65,1.42,1,1.72,0,.6-3.4.21-4.07S182.06,360,182.06,360Z" transform="translate(-14.06 -22.22)"/><path class="cls-7" d="M183.84,361s-1.12,3.21-.81,3.66,1.42,1,1.72,0,.6-3.41.2-4.07S183.84,361,183.84,361Z" transform="translate(-14.06 -22.22)"/><path class="cls-7" d="M186.16,360.89s-1.12,3.21-.81,3.65,1.42,1,1.72,0,.6-3.4.2-4.06S186.16,360.89,186.16,360.89Z" transform="translate(-14.06 -22.22)"/><path class="cls-7" d="M188,361.46s-.86,2.73-.62,3.1,1.08.87,1.31,0a7.92,7.92,0,0,0,.15-3.45C188.55,360.52,188,361.46,188,361.46Z" transform="translate(-14.06 -22.22)"/><path class="cls-7" d="M73,355.13s-3.39-.64-3.69-.13-.47,2.07.62,2.2,3.39-.08,3.87-.75S73,355.13,73,355.13Z" transform="translate(-14.06 -22.22)"/><path class="cls-7" d="M72.63,357.68s-3.38-.65-3.69-.13-.46,2.07.63,2.19,3.38-.07,3.87-.75S72.63,357.68,72.63,357.68Z" transform="translate(-14.06 -22.22)"/><path class="cls-7" d="M73.55,360.62s-3.38-.64-3.69-.13-.46,2.07.63,2.2,3.38-.08,3.87-.75S73.55,360.62,73.55,360.62Z" transform="translate(-14.06 -22.22)"/><path class="cls-7" d="M73.65,363.14s-2.84-.42-3.1,0-.44,1.59.47,1.66,2.86-.13,3.28-.66S73.65,363.14,73.65,363.14Z" transform="translate(-14.06 -22.22)"/><path class="cls-7" d="M240.83,360s1.12,3.21.81,3.65-1.42,1-1.72,0-.6-3.4-.2-4.07S240.83,360,240.83,360Z" transform="translate(-14.06 -22.22)"/><path class="cls-7" d="M239,361s1.12,3.21.81,3.66-1.42,1-1.72,0-.6-3.41-.2-4.07S239,361,239,361Z" transform="translate(-14.06 -22.22)"/><path class="cls-7" d="M236.72,360.89s1.13,3.21.81,3.65-1.42,1-1.72,0-.6-3.4-.2-4.06S236.72,360.89,236.72,360.89Z" transform="translate(-14.06 -22.22)"/><path class="cls-7" d="M234.87,361.46s.86,2.73.62,3.1-1.08.87-1.3,0a7.79,7.79,0,0,1-.16-3.45C234.33,360.52,234.87,361.46,234.87,361.46Z" transform="translate(-14.06 -22.22)"/><line class="cls-3" x1="141.47" y1="345.16" x2="140.34" y2="340"/><path class="cls-7" d="M163.51,365.41l6.44-.92,3-2.59s1.09-3.43,1.26-3.85a.79.79,0,0,0-1-1c-.83.25-1.08,1.5-1.08,1.5s-.67-2.34-1.34-1.83a1.88,1.88,0,0,0-.75,1.17s-1.09-1.34-1.59-.92a3.34,3.34,0,0,0-.67,1.67s-1.26-1-1.67-.42,0,1.59,0,1.59l.5,2-.84.16-3.51.17" transform="translate(-14.06 -22.22)"/><path class="cls-3" d="M170,357.89s.69,2.58.79,2.87a11.75,11.75,0,0,1-.88,3.73" transform="translate(-14.06 -22.22)"/><path class="cls-3" d="M172.13,358.55s.78,2.5.39,3.52" transform="translate(-14.06 -22.22)"/><path class="cls-3" d="M167.78,358.64l1.11,2.22a14.21,14.21,0,0,1-.43,3.53" transform="translate(-14.06 -22.22)"/><line class="cls-3" x1="152.55" y1="339.59" x2="152.61" y2="340.67"/><path class="cls-3" d="M162.59,362.31a1.51,1.51,0,0,0-.14,2" transform="translate(-14.06 -22.22)"/></g></svg>